<svg xmlns="http://www.w3.org/2000/svg" xmlns:xlink="http://www.w3.org/1999/xlink" width="1920" zoomAndPan="magnify" viewBox="0 0 1440 809.999993" height="1080" preserveAspectRatio="xMidYMid meet" version="1.2"><defs><clipPath id="179b0f8d66"><path d="M 376.144531 61.144531 L 1063.855469 61.144531 L 1063.855469 748.855469 L 376.144531 748.855469 Z M 376.144531 61.144531 "/></clipPath></defs><g id="8f75f9cc0c"><g clip-rule="nonzero" clip-path="url(#179b0f8d66)"><path style=" stroke:none;fill-rule:nonzero;fill:#ffffff;fill-opacity:1;" d="M 376.144531 61.144531 L 1063.855469 61.144531 L 1063.855469 748.855469 L 376.144531 748.855469 Z M 376.144531 61.144531 "/></g><path style="fill-rule:nonzero;fill:#ffffff;fill-opacity:1;stroke-width:1;stroke-linecap:butt;stroke-linejoin:miter;stroke:#000000;stroke-opacity:1;stroke-miterlimit:4;" d="M 2.00001 2.499941 L 9.00007 2.499941 M 12.000002 2.499941 L 13.000034 2.499941 M 14.999934 2.499941 L 16.999998 2.499941 M 18.00003 2.499941 L 19.000062 2.499941 M 19.99993 2.499941 L 26.99999 2.499941 M 2.00001 3.499973 L 3.000042 3.499973 M 8.000038 3.499973 L 9.00007 3.499973 M 10.99997 3.499973 L 13.000034 3.499973 M 14.000066 3.499973 L 14.999934 3.499973 M 16.999998 3.499973 L 18.00003 3.499973 M 19.99993 3.499973 L 20.999962 3.499973 M 25.999958 3.499973 L 26.99999 3.499973 M 2.00001 4.500006 L 3.000042 4.500006 M 4.000074 4.500006 L 7.000006 4.500006 M 8.000038 4.500006 L 9.00007 4.500006 M 9.999938 4.500006 L 12.000002 4.500006 M 14.000066 4.500006 L 14.999934 4.500006 M 15.999966 4.500006 L 16.999998 4.500006 M 19.99993 4.500006 L 20.999962 4.500006 M 21.999994 4.500006 L 24.999926 4.500006 M 25.999958 4.500006 L 26.99999 4.500006 M 2.00001 5.500038 L 3.000042 5.500038 M 4.000074 5.500038 L 7.000006 5.500038 M 8.000038 5.500038 L 9.00007 5.500038 M 9.999938 5.500038 L 14.000066 5.500038 M 14.999934 5.500038 L 19.000062 5.500038 M 19.99993 5.500038 L 20.999962 5.500038 M 21.999994 5.500038 L 24.999926 5.500038 M 25.999958 5.500038 L 26.99999 5.500038 M 2.00001 6.50007 L 3.000042 6.50007 M 4.000074 6.50007 L 7.000006 6.50007 M 8.000038 6.50007 L 9.00007 6.50007 M 9.999938 6.50007 L 14.000066 6.50007 M 14.999934 6.50007 L 15.999966 6.50007 M 18.00003 6.50007 L 19.000062 6.50007 M 19.99993 6.50007 L 20.999962 6.50007 M 21.999994 6.50007 L 24.999926 6.50007 M 25.999958 6.50007 L 26.99999 6.50007 M 2.00001 7.499937 L 3.000042 7.499937 M 8.000038 7.499937 L 9.00007 7.499937 M 9.999938 7.499937 L 10.99997 7.499937 M 12.000002 7.499937 L 13.000034 7.499937 M 14.000066 7.499937 L 19.000062 7.499937 M 19.99993 7.499937 L 20.999962 7.499937 M 25.999958 7.499937 L 26.99999 7.499937 M 2.00001 8.499969 L 9.00007 8.499969 M 9.999938 8.499969 L 10.99997 8.499969 M 12.000002 8.499969 L 13.000034 8.499969 M 14.000066 8.499969 L 14.999934 8.499969 M 15.999966 8.499969 L 16.999998 8.499969 M 18.00003 8.499969 L 19.000062 8.499969 M 19.99993 8.499969 L 26.99999 8.499969 M 9.999938 9.500002 L 12.000002 9.500002 M 16.999998 9.500002 L 18.00003 9.500002 M 2.00001 10.500034 L 3.000042 10.500034 M 4.000074 10.500034 L 9.00007 10.500034 M 10.99997 10.500034 L 12.000002 10.500034 M 14.000066 10.500034 L 15.999966 10.500034 M 16.999998 10.500034 L 18.00003 10.500034 M 19.99993 10.500034 L 24.999926 10.500034 M 3.000042 11.500066 L 4.000074 11.500066 M 4.999942 11.500066 L 7.000006 11.500066 M 9.00007 11.500066 L 10.99997 11.500066 M 12.000002 11.500066 L 13.000034 11.500066 M 14.000066 11.500066 L 15.999966 11.500066 M 18.00003 11.500066 L 19.99993 11.500066 M 20.999962 11.500066 L 21.999994 11.500066 M 24.999926 11.500066 L 25.999958 11.500066 M 3.000042 12.499933 L 4.000074 12.499933 M 5.999974 12.499933 L 7.000006 12.499933 M 8.000038 12.499933 L 9.00007 12.499933 M 10.99997 12.499933 L 14.000066 12.499933 M 14.999934 12.499933 L 18.00003 12.499933 M 19.000062 12.499933 L 24.000058 12.499933 M 24.999926 12.499933 L 26.99999 12.499933 M 3.000042 13.499965 L 4.999942 13.499965 M 7.000006 13.499965 L 8.000038 13.499965 M 9.999938 13.499965 L 14.000066 13.499965 M 16.999998 13.499965 L 19.99993 13.499965 M 20.999962 13.499965 L 21.999994 13.499965 M 25.999958 13.499965 L 26.99999 13.499965 M 2.00001 14.499998 L 5.999974 14.499998 M 7.000006 14.499998 L 9.00007 14.499998 M 9.999938 14.499998 L 10.99997 14.499998 M 12.000002 14.499998 L 16.999998 14.499998 M 19.000062 14.499998 L 23.000026 14.499998 M 24.000058 14.499998 L 26.99999 14.499998 M 2.00001 15.50003 L 3.000042 15.50003 M 4.000074 15.50003 L 7.000006 15.50003 M 9.00007 15.50003 L 9.999938 15.50003 M 10.99997 15.50003 L 13.000034 15.50003 M 14.000066 15.50003 L 14.999934 15.50003 M 18.00003 15.50003 L 19.99993 15.50003 M 20.999962 15.50003 L 21.999994 15.50003 M 23.000026 15.50003 L 24.000058 15.50003 M 24.999926 15.50003 L 25.999958 15.50003 M 2.00001 16.500062 L 3.000042 16.500062 M 4.999942 16.500062 L 5.999974 16.500062 M 7.000006 16.500062 L 9.999938 16.500062 M 10.99997 16.500062 L 12.000002 16.500062 M 14.999934 16.500062 L 15.999966 16.500062 M 16.999998 16.500062 L 24.000058 16.500062 M 24.999926 16.500062 L 26.99999 16.500062 M 2.00001 17.499929 L 3.000042 17.499929 M 4.000074 17.499929 L 5.999974 17.499929 M 7.000006 17.499929 L 8.000038 17.499929 M 9.00007 17.499929 L 10.99997 17.499929 M 13.000034 17.499929 L 14.000066 17.499929 M 15.999966 17.499929 L 16.999998 17.499929 M 18.00003 17.499929 L 19.99993 17.499929 M 20.999962 17.499929 L 23.000026 17.499929 M 25.999958 17.499929 L 26.99999 17.499929 M 2.00001 18.499961 L 3.000042 18.499961 M 4.999942 18.499961 L 5.999974 18.499961 M 8.000038 18.499961 L 9.999938 18.499961 M 10.99997 18.499961 L 12.000002 18.499961 M 13.000034 18.499961 L 16.999998 18.499961 M 18.00003 18.499961 L 23.000026 18.499961 M 24.000058 18.499961 L 24.999926 18.499961 M 9.999938 19.499994 L 10.99997 19.499994 M 13.000034 19.499994 L 15.999966 19.499994 M 16.999998 19.499994 L 19.000062 19.499994 M 21.999994 19.499994 L 24.000058 19.499994 M 2.00001 20.500026 L 9.00007 20.500026 M 10.99997 20.500026 L 12.000002 20.500026 M 14.000066 20.500026 L 16.999998 20.500026 M 18.00003 20.500026 L 19.000062 20.500026 M 19.99993 20.500026 L 20.999962 20.500026 M 21.999994 20.500026 L 23.000026 20.500026 M 24.000058 20.500026 L 26.99999 20.500026 M 2.00001 21.500058 L 3.000042 21.500058 M 8.000038 21.500058 L 9.00007 21.500058 M 9.999938 21.500058 L 10.99997 21.500058 M 12.000002 21.500058 L 13.000034 21.500058 M 14.000066 21.500058 L 14.999934 21.500058 M 15.999966 21.500058 L 16.999998 21.500058 M 18.00003 21.500058 L 19.000062 21.500058 M 21.999994 21.500058 L 24.000058 21.500058 M 2.00001 22.499925 L 3.000042 22.499925 M 4.000074 22.499925 L 7.000006 22.499925 M 8.000038 22.499925 L 9.00007 22.499925 M 9.999938 22.499925 L 10.99997 22.499925 M 12.000002 22.499925 L 15.999966 22.499925 M 16.999998 22.499925 L 23.000026 22.499925 M 24.000058 22.499925 L 24.999926 22.499925 M 2.00001 23.499957 L 3.000042 23.499957 M 4.000074 23.499957 L 7.000006 23.499957 M 8.000038 23.499957 L 9.00007 23.499957 M 9.999938 23.499957 L 10.99997 23.499957 M 13.000034 23.499957 L 14.000066 23.499957 M 14.999934 23.499957 L 15.999966 23.499957 M 18.00003 23.499957 L 19.000062 23.499957 M 19.99993 23.499957 L 20.999962 23.499957 M 21.999994 23.499957 L 26.99999 23.499957 M 2.00001 24.49999 L 3.000042 24.49999 M 4.000074 24.49999 L 7.000006 24.49999 M 8.000038 24.49999 L 9.00007 24.49999 M 9.999938 24.49999 L 10.99997 24.49999 M 12.000002 24.49999 L 13.000034 24.49999 M 14.000066 24.49999 L 18.00003 24.49999 M 23.000026 24.49999 L 24.999926 24.49999 M 25.999958 24.49999 L 26.99999 24.49999 M 2.00001 25.500022 L 3.000042 25.500022 M 8.000038 25.500022 L 9.00007 25.500022 M 18.00003 25.500022 L 19.99993 25.500022 M 20.999962 25.500022 L 24.000058 25.500022 M 25.999958 25.500022 L 26.99999 25.500022 M 2.00001 26.500054 L 9.00007 26.500054 M 9.999938 26.500054 L 13.000034 26.500054 M 14.999934 26.500054 L 16.999998 26.500054 M 20.999962 26.500054 L 26.99999 26.500054 " transform="matrix(23.714082,0,0,23.714082,376.145817,61.145875)"/></g></svg>